<svg height="512" viewBox="0 0 61 60" width="512" xmlns="http://www.w3.org/2000/svg"><g id="Page-1" fill="none" fill-rule="evenodd"><g id="063---Drop-File" transform="translate(0 -1)"><path id="Path" d="m37 11.5v13.5c-.0055153 7.7297008-6.2702992 13.9944847-14 14h-7c-3.7130309 0-7.27398564-1.4749958-9.89949494-4.1005051-2.62550929-2.6255093-4.10050506-6.186464-4.10050506-9.8994949v-7.54c.00158367-2.9134014 1.81101178-5.5199344 4.54-6.54l2.46-.92v-4.5c0-1.93299662 1.5670034-3.5 3.5-3.5s3.5 1.56700338 3.5 3.5v2c0-1.93299662 1.5670034-3.5 3.5-3.5s3.5 1.56700338 3.5 3.5v1c0-1.25042959.6670962-2.40587419 1.75-3.031089s2.4170962-.62521481 3.5 0 1.75 1.78065941 1.75 3.031089v3c0-1.93299662 1.5670034-3.5 3.5-3.5s3.5 1.56700338 3.5 3.5z" fill="#02a9f4"/><path id="Path" d="m35.982 9.03c-1.0433525-1.05870425-2.6464346-1.3324601-3.982-.68 1.2266354.567022 2.0086386 1.798677 2 3.15v13.5c-.0055153 7.7297008-6.2702992 13.9944847-14 14h3c7.7297008-.0055153 13.9944847-6.2702992 14-14v-13.5c.0013671-.9256996-.3647778-1.81408663-1.018-2.47z" fill="#0377bc"/><path id="Path" d="m60 32v25c0 1.6568542-1.3431458 3-3 3h-24c-1.6568542 0-3-1.3431458-3-3v-19.88c4.3361708-2.4941721 7.0065123-7.1176776 7-12.12v-3h13v7c0 1.6568542 1.3431458 3 3 3z" fill="#f5f5f5"/><g fill="#cfd8dc"><path id="Path" d="m50 32h3c-1.6568542 0-3-1.3431458-3-3v-7h-3v7c0 1.6568542 1.3431458 3 3 3z"/><path id="Path" d="m57 32v25c0 1.6568542-1.3431458 3-3 3h3c1.6568542 0 3-1.3431458 3-3v-25z"/><path id="Path" d="m60 32h-7c-1.6568542 0-3-1.3431458-3-3v-7z"/></g><path id="Shape" d="m15.9 39.988h7c2.06579.0001424 4.1090396-.4292806 6-1.261v18.261c0 2.209139 1.790861 4 4 4h24c2.209139 0 4-1.790861 4-4v-25c-.0098949-.2631403-.1138581-.5140003-.293-.707l-10-10c-.1929997-.1791419-.4438597-.2831051-.707-.293h-12v-9.5c.0060186-1.67910956-.9253581-3.22125827-2.4142809-3.99750187-1.4889228-.77624359-3.2865404-.65684455-4.6597191.30950187-.2480362-1.66047028-1.4044239-3.04250727-2.9951059-3.5795495-1.590682-.53704222-3.3481339-.13876876-4.5518941 1.0315495-.6396025-1.14083799-1.7499571-1.94137005-3.0344429-2.18774148-1.2844858-.24637144-2.6122369.08651855-3.6285571.90974148-.7351674-2.05641173-2.8435988-3.28536833-4.995252-2.91161857-2.15165321.37374976-3.72213289 2.24174622-3.720748 4.42561857v3.812l-1.811.677c-3.1122011 1.1753679-5.17635089 4.1492711-5.189 7.476v7.535c.00881856 8.2806157 6.71938427 14.9911814 15 15zm35-15.588 6.585 6.586h-4.585c-1.1045695 0-2-.8954305-2-2zm-13 .586v-2h11v6c0 2.209139 1.790861 4 4 4h6v24c0 1.1045695-.8954305 2-2 2h-24c-1.1045695 0-2-.8954305-2-2v-19.331c4.3517886-2.7419573 6.9941093-7.5234255 7-12.667zm-35-7.535c.00794092-2.4952405 1.55564521-4.726481 3.89-5.608l1.11-.413v12.558c0 .5522847.44771525 1 1 1s1-.4477153 1-1v-18.5c0-1.38071187 1.1192881-2.5 2.5-2.5s2.5 1.11928813 2.5 2.5v8.5c0 .5522847.4477153 1 1 1s1-.4477153 1-1v-6.5c0-1.38071187 1.1192881-2.5 2.5-2.5s2.5 1.11928813 2.5 2.5v7.5c0 .5522847.4477153 1 1 1s1-.4477153 1-1v-6.5c0-1.38071187 1.1192881-2.5 2.5-2.5s2.5 1.11928813 2.5 2.5v8.5c0 .5522847.4477153 1 1 1s1-.4477153 1-1v-5.5c0-1.3807119 1.1192881-2.5 2.5-2.5s2.5 1.1192881 2.5 2.5v13.5c-.008266 7.1762751-5.8237249 12.991734-13 13h-7c-7.17650321-.0077161-12.99228392-5.8234968-13-13z" fill="#000" fill-rule="nonzero"/><path id="Path" d="m22.9 35.988c6.0723907-.0066136 10.9933864-4.9276093 11-11 0-.5522847-.4477153-1-1-1s-1 .4477153-1 1c-.0055111 4.9682782-4.0317218 8.9944889-9 9-.5522847 0-1 .4477153-1 1s.4477153 1 1 1z" fill="#000"/><path id="Path" d="m32.9 52.988v3c0 .5522847.4477153 1 1 1h3c.5522847 0 1-.4477153 1-1s-.4477153-1-1-1h-2v-2c0-.5522847-.4477153-1-1-1s-1 .4477153-1 1z" fill="#000"/></g></g></svg>